<svg width="54" height="54" viewBox="0 0 54 54" fill="none" xmlns="http://www.w3.org/2000/svg">
<g id="iwwa:humidity">
<g id="Group">
<path id="Vector" d="M38.8221 27.911C36.1424 19.0982 28.2557 9.6928 27.8547 9.21759C27.7921 9.14904 27.7159 9.09428 27.6309 9.05681C27.546 9.01935 27.4541 9 27.3613 9C27.2684 9 27.1766 9.01935 27.0916 9.05681C27.0067 9.09428 26.9305 9.14904 26.8679 9.21759C26.4669 9.6928 18.5789 19.0969 15.8978 27.911C15.3483 29.7187 15 31.5047 15 33.1801C15 39.9949 20.5458 45.5393 27.3606 45.5393C34.1754 45.5393 39.7185 39.9949 39.7185 33.1801C39.7199 31.5047 39.3716 29.72 38.8221 27.911ZM27.362 44.2487C21.2586 44.2487 16.2933 39.2834 16.2933 33.1814C16.2933 31.525 16.6619 29.7349 17.2505 27.9124C19.5954 20.6561 25.5975 12.8518 27.362 10.658C29.1264 12.8518 35.1285 20.6561 37.4708 27.9124C38.0594 29.7362 38.4279 31.525 38.4279 33.1814C38.4279 39.2834 33.464 44.2487 27.362 44.2487Z" fill="#191919"/>
<path id="Vector_2" d="M20.4338 27.911C19.7588 29.6255 19.3078 31.3427 19.3078 32.906C19.3078 35.0419 20.1563 37.0904 21.6666 38.6007C23.177 40.111 25.2254 40.9595 27.3613 40.9595C29.4972 40.9595 31.5456 40.111 33.0559 38.6007C34.5662 37.0904 35.4147 35.0419 35.4147 32.906C35.4147 31.3427 34.9638 29.6255 34.2888 27.911H20.4338Z" fill="#191919"/>
</g>
</g>
</svg>
