<svg width="54" height="54" viewBox="0 0 54 54" fill="none" xmlns="http://www.w3.org/2000/svg">
<g id="material-symbols:visibility-outline">
<path id="Vector" d="M27.75 37C30.5625 37 32.9535 36.0153 34.923 34.0458C36.8925 32.0763 37.8765 29.686 37.875 26.875C37.875 24.0625 36.8903 21.6715 34.9208 19.702C32.9513 17.7325 30.561 16.7485 27.75 16.75C24.9375 16.75 22.5465 17.7348 20.577 19.7043C18.6075 21.6738 17.6235 24.064 17.625 26.875C17.625 29.6875 18.6097 32.0785 20.5792 34.048C22.5487 36.0175 24.939 37.0015 27.75 37ZM27.75 32.95C26.0625 32.95 24.6277 32.359 23.4457 31.177C22.2637 29.995 21.6735 28.561 21.675 26.875C21.675 25.1875 22.266 23.7528 23.448 22.5708C24.63 21.3888 26.064 20.7985 27.75 20.8C29.4375 20.8 30.8723 21.391 32.0543 22.573C33.2363 23.755 33.8265 25.189 33.825 26.875C33.825 28.5625 33.2348 29.9973 32.0543 31.1793C30.8738 32.3613 29.439 32.9515 27.75 32.95ZM27.75 43.75C22.275 43.75 17.2875 42.2215 12.7875 39.1645C8.2875 36.1075 5.025 32.011 3 26.875C5.025 21.7375 8.2875 17.6403 12.7875 14.5833C17.2875 11.5263 22.275 9.9985 27.75 10C33.225 10 38.2125 11.5285 42.7125 14.5855C47.2125 17.6425 50.475 21.739 52.5 26.875C50.475 32.0125 47.2125 36.1098 42.7125 39.1668C38.2125 42.2238 33.225 43.7515 27.75 43.75ZM27.75 39.25C31.9875 39.25 35.8785 38.134 39.423 35.902C42.9675 33.67 45.6765 30.661 47.55 26.875C45.675 23.0875 42.9653 20.0778 39.4208 17.8458C35.8763 15.6138 31.986 14.4985 27.75 14.5C23.5125 14.5 19.6215 15.616 16.077 17.848C12.5325 20.08 9.8235 23.089 7.95 26.875C9.825 30.6625 12.5348 33.6723 16.0793 35.9043C19.6238 38.1363 23.514 39.2515 27.75 39.25Z" fill="#191919"/>
</g>
</svg>
