<svg width="54" height="54" viewBox="0 0 54 54" fill="none" xmlns="http://www.w3.org/2000/svg">
<g id="ph:wind">
<path id="Vector" d="M38.8125 38.8125C38.8125 40.6027 38.1013 42.3196 36.8355 43.5855C35.5696 44.8513 33.8527 45.5625 32.0625 45.5625C29.1727 45.5625 26.3777 43.6788 25.418 41.0864C25.2719 40.669 25.2955 40.211 25.4837 39.8109C25.6719 39.4107 26.0097 39.1005 26.4243 38.9468C26.8389 38.7931 27.2973 38.8083 27.7008 38.9891C28.1043 39.1699 28.4208 39.5019 28.582 39.9136C29.0545 41.1898 30.5859 42.1875 32.0625 42.1875C32.9576 42.1875 33.816 41.8319 34.449 41.199C35.0819 40.566 35.4375 39.7076 35.4375 38.8125C35.4375 37.9174 35.0819 37.059 34.449 36.426C33.816 35.7931 32.9576 35.4375 32.0625 35.4375H8.4375C7.98995 35.4375 7.56073 35.2597 7.24426 34.9432C6.92779 34.6268 6.75 34.1976 6.75 33.75C6.75 33.3024 6.92779 32.8732 7.24426 32.5568C7.56073 32.2403 7.98995 32.0625 8.4375 32.0625H32.0625C33.8527 32.0625 35.5696 32.7737 36.8355 34.0395C38.1013 35.3054 38.8125 37.0223 38.8125 38.8125ZM25.3125 21.9375C27.1027 21.9375 28.8196 21.2263 30.0855 19.9605C31.3513 18.6946 32.0625 16.9777 32.0625 15.1875C32.0625 13.3973 31.3513 11.6804 30.0855 10.4145C28.8196 9.14866 27.1027 8.4375 25.3125 8.4375C22.4227 8.4375 19.6277 10.3212 18.668 12.9136C18.5219 13.331 18.5455 13.789 18.7337 14.1891C18.9219 14.5893 19.2597 14.8995 19.6743 15.0532C20.0889 15.2069 20.5473 15.1917 20.9508 15.0109C21.3543 14.8301 21.6708 14.4981 21.832 14.0864C22.3045 12.8102 23.8359 11.8125 25.3125 11.8125C26.2076 11.8125 27.066 12.1681 27.699 12.801C28.3319 13.4339 28.6875 14.2924 28.6875 15.1875C28.6875 16.0826 28.3319 16.941 27.699 17.574C27.066 18.2069 26.2076 18.5625 25.3125 18.5625H5.0625C4.61495 18.5625 4.18572 18.7403 3.86926 19.0568C3.55279 19.3732 3.375 19.8024 3.375 20.25C3.375 20.6976 3.55279 21.1268 3.86926 21.4432C4.18572 21.7597 4.61495 21.9375 5.0625 21.9375H25.3125ZM43.875 15.1875C40.9852 15.1875 38.1902 17.0712 37.2305 19.6636C37.0844 20.081 37.108 20.539 37.2962 20.9391C37.4844 21.3393 37.8222 21.6495 38.2368 21.8032C38.6514 21.9569 39.1098 21.9417 39.5133 21.7609C39.9168 21.5801 40.2333 21.2481 40.3945 20.8364C40.867 19.5602 42.3984 18.5625 43.875 18.5625C44.7701 18.5625 45.6285 18.9181 46.2615 19.551C46.8944 20.184 47.25 21.0424 47.25 21.9375C47.25 22.8326 46.8944 23.691 46.2615 24.324C45.6285 24.9569 44.7701 25.3125 43.875 25.3125H6.75C6.30245 25.3125 5.87322 25.4903 5.55676 25.8068C5.24029 26.1232 5.0625 26.5524 5.0625 27C5.0625 27.4476 5.24029 27.8768 5.55676 28.1932C5.87322 28.5097 6.30245 28.6875 6.75 28.6875H43.875C45.6652 28.6875 47.3821 27.9763 48.648 26.7105C49.9138 25.4446 50.625 23.7277 50.625 21.9375C50.625 20.1473 49.9138 18.4304 48.648 17.1645C47.3821 15.8987 45.6652 15.1875 43.875 15.1875Z" fill="#191919"/>
</g>
</svg>
